<?xml version="1.0" standalone="no"?>
<!DOCTYPE svg PUBLIC "-//W3C//DTD SVG 20010904//EN"
 "http://www.w3.org/TR/2001/REC-SVG-20010904/DTD/svg10.dtd">
<svg version="1.0" xmlns="http://www.w3.org/2000/svg"
 width="88.000000pt" height="88.000000pt" viewBox="0 0 88.000000 88.000000"
 preserveAspectRatio="xMidYMid meet">
<metadata>
Created by potrace 1.14, written by Peter Selinger 2001-2017
</metadata>
<g transform="translate(0.000000,88.000000) scale(0.100000,-0.100000)"
fill="#000000" stroke="none">
<path d="M319 862 c-8 -3 -17 -9 -20 -15 -8 -11 -10 -228 -2 -239 2 -5 17 -1
32 6 15 8 65 24 112 36 46 11 99 26 117 31 l32 11 0 78 c0 51 -4 81 -12 86
-13 9 -236 13 -259 6z"/>
<path d="M655 692 c-27 -13 -88 -35 -135 -49 -47 -13 -108 -30 -136 -38 -77
-23 -136 -67 -170 -127 -25 -47 -29 -64 -31 -153 -2 -71 -10 -124 -28 -184
-29 -95 -31 -121 -11 -121 9 0 20 25 31 75 25 113 65 184 148 260 94 88 128
105 48 24 -61 -61 -135 -159 -126 -167 2 -2 19 1 37 7 18 6 58 13 88 16 78 7
109 15 155 37 120 60 173 172 199 421 4 32 -3 32 -69 -1z"/>
<path d="M33 575 c-12 -9 -15 -36 -15 -137 0 -69 3 -131 6 -137 4 -6 33 -11
65 -11 l58 0 6 70 c7 81 31 142 76 188 17 17 30 33 29 33 -18 8 -213 2 -225
-6z"/>
<path d="M728 518 c-22 -88 -58 -166 -93 -200 l-28 -28 127 0 126 0 1 43 c2
110 0 240 -5 244 -2 3 -28 6 -58 7 l-53 2 -17 -68z"/>
<path d="M550 249 c-46 -25 -92 -37 -165 -44 -96 -9 -95 -8 -94 -78 3 -116 -9
-107 150 -107 163 0 151 -12 147 147 l-3 101 -35 -19z"/>
</g>
</svg>
